<?xml version="1.0" standalone="no"?>
<!DOCTYPE svg PUBLIC "-//W3C//DTD SVG 20010904//EN"
 "http://www.w3.org/TR/2001/REC-SVG-20010904/DTD/svg10.dtd">
<svg version="1.0" xmlns="http://www.w3.org/2000/svg"
 width="1080.000000pt" height="1080.000000pt" viewBox="0 0 1080.000000 1080.000000"
 preserveAspectRatio="xMidYMid meet">
<metadata>
Created by potrace 1.15, written by Peter Selinger 2001-2017
</metadata>
<g transform="translate(0.000000,1080.000000) scale(0.100000,-0.100000)"
fill="#000000" stroke="none">
<path d="M5400 8382 l-1105 -638 0 -239 0 -239 287 -166 c158 -91 289 -168
292 -170 2 -3 -128 -81 -290 -175 l-294 -169 0 -973 c0 -535 1 -973 3 -973 2
0 500 287 1108 638 l1104 637 0 239 0 240 -293 169 -293 169 63 37 c35 20 168
97 296 171 l232 134 0 973 c0 535 -1 973 -3 973 -1 0 -500 -287 -1107 -638z
m755 -328 c-15 -11 -1243 -721 -1256 -726 -6 -3 -320 174 -316 178 1 1 358
207 792 458 l790 456 3 -177 c2 -152 0 -180 -13 -189z m13 -590 l-3 -185 -293
-170 c-161 -93 -297 -169 -302 -169 -12 0 -308 168 -314 179 -4 6 889 530 907
531 4 0 6 -84 5 -186z m-785 -826 c78 -45 148 -86 154 -92 10 -9 -95 -74 -441
-274 -249 -144 -456 -262 -460 -262 -3 0 -6 83 -6 184 l0 184 293 170 c160 94
298 171 305 171 7 1 77 -36 155 -81z m834 -485 c-5 -4 -1581 -913 -1584 -913
-2 0 -2 81 -1 181 l3 181 635 367 635 367 157 -90 c86 -50 156 -92 155 -93z"/>
<path d="M3982 3944 c-235 -117 -153 -467 109 -467 214 0 328 243 190 404 -74
87 -198 113 -299 63z"/>
<path d="M2220 2840 l0 -1030 205 0 205 0 0 297 0 298 298 -298 297 -297 285
2 284 3 -387 395 c-213 217 -387 398 -387 402 0 3 153 157 340 340 187 184
340 338 340 341 0 4 -125 7 -277 7 l-278 0 -257 -262 -257 -263 0 548 -1 547
-205 0 -205 0 0 -1030z"/>
<path d="M5640 3495 l0 -374 -46 49 c-60 64 -122 103 -214 134 -184 61 -421
35 -597 -65 -78 -45 -178 -142 -233 -225 -147 -224 -161 -581 -35 -842 39 -79
61 -110 129 -177 134 -134 291 -201 496 -211 178 -10 331 38 448 141 l52 47 0
-81 0 -81 205 0 205 0 0 1030 0 1030 -205 0 -205 0 0 -375z m-228 -543 c163
-80 246 -259 217 -469 -32 -243 -224 -390 -459 -352 -210 33 -331 190 -331
429 -1 207 87 349 253 411 42 15 73 19 154 17 90 -3 107 -7 166 -36z"/>
<path d="M7380 3495 l0 -374 -46 49 c-90 97 -214 152 -369 165 -300 26 -586
-132 -710 -390 -66 -139 -80 -203 -79 -385 1 -126 5 -170 22 -234 60 -219 184
-372 377 -466 106 -51 178 -69 305 -76 178 -10 335 40 449 142 l51 46 0 -81 0
-81 205 0 205 0 0 1030 0 1030 -205 0 -205 0 0 -375z m-230 -541 c143 -67 230
-217 230 -394 0 -62 -25 -174 -50 -225 -112 -231 -459 -283 -634 -95 -88 94
-121 194 -113 349 6 146 30 205 117 293 86 86 149 109 290 105 82 -2 104 -7
160 -33z"/>
<path d="M7940 3032 c0 -910 -1 -891 56 -1003 31 -63 104 -142 159 -175 142
-83 342 -96 530 -33 96 31 96 31 42 88 -44 47 -147 195 -147 211 0 4 -29 10
-65 12 -69 4 -101 21 -139 72 -21 27 -21 37 -24 847 l-2 819 -205 0 -205 0 0
-838z"/>
<path d="M1265 3330 c-231 -36 -387 -143 -447 -306 -29 -79 -31 -234 -5 -315
55 -166 196 -253 514 -319 279 -57 333 -83 333 -158 0 -40 -20 -66 -70 -92
-40 -21 -204 -25 -284 -6 -87 21 -179 64 -233 110 -22 20 -46 36 -53 36 -6 0
-83 -41 -171 -91 l-159 -92 23 -31 c40 -52 147 -133 232 -175 390 -192 875
-125 1055 146 74 113 92 296 39 408 -67 141 -197 204 -566 274 -184 35 -252
64 -270 118 -22 63 27 132 110 154 61 16 210 6 280 -19 32 -11 85 -39 117 -61
33 -23 63 -41 67 -40 7 0 87 96 183 217 l35 45 -39 33 c-56 49 -194 112 -303
140 -110 28 -291 39 -388 24z"/>
<path d="M9274 3325 c-97 -17 -136 -31 -225 -77 -226 -116 -358 -320 -389
-597 -28 -255 43 -484 200 -642 160 -162 372 -238 625 -226 216 11 391 85 543
231 77 73 79 64 -58 201 l-121 122 -58 -56 c-118 -116 -289 -165 -453 -130
-136 29 -227 107 -263 227 l-6 22 510 0 510 0 6 22 c14 42 8 291 -9 369 -65
302 -268 496 -566 539 -86 13 -159 11 -246 -5z m233 -350 c99 -29 178 -116
201 -223 l10 -42 -324 0 c-178 0 -324 2 -324 5 0 20 38 108 62 142 74 109 236
159 375 118z"/>
<path d="M3890 2555 l0 -745 205 0 205 0 0 745 0 745 -205 0 -205 0 0 -745z"/>
</g>
</svg>
